<svg width="1144" height="550" viewBox="0 0 1144 637" fill="none" xmlns="http://www.w3.org/2000/svg">
<rect width="1144" height="637" fill="white"/>
<g clip-path="url(#clip0_0_1)">
<path opacity="0.1" d="M1144 416.31C1144.06 449.406 1135.03 481.882 1117.88 510.19C1117.88 544.81 1101.74 576.19 1075.56 599.06C1069.01 604.776 1061.95 609.89 1054.48 614.34C1054.18 614.53 1053.87 614.71 1053.56 614.89C1053 615.22 1052.44 615.55 1051.87 615.89L1051.34 616.2C1048.95 617.55 1046.51 618.85 1044.02 620.07C1021.07 631.353 995.829 637.171 970.26 637.07H217.17C211.17 637.07 205.223 636.83 199.33 636.35C178.387 634.7 157.807 629.935 138.27 622.21C134.457 620.703 130.717 619.083 127.05 617.35C125.303 616.53 123.573 615.687 121.86 614.82C120.79 614.28 119.72 613.72 118.66 613.16C112.228 609.74 105.998 605.954 100 601.82C94.5183 598.068 89.2439 594.022 84.2 589.7C50.17 560.5 29.12 520.09 29.12 475.5C10.0456 446.128 -0.072162 411.842 1.72988e-05 376.82C1.72988e-05 277.68 79.24 197.31 177 197.31C180 197.31 183 197.4 186 197.56C186.43 197.56 186.85 197.56 187.28 197.62C203.76 169.53 225.79 143.72 252.28 121C324.52 59.1 430.1 20.08 547.71 20.08C646.53 20.08 736.86 47.63 806.05 93.15C832.269 78.3289 861.882 70.5594 892 70.6C989.74 70.6 1069 150.97 1069 250.11C1068.99 256.383 1068.65 262.651 1068 268.89C1091.56 285.568 1110.76 307.668 1123.99 333.325C1137.22 358.982 1144.08 387.444 1144 416.31V416.31Z" fill="#6C63FF"/>
<path opacity="0.1" d="M910.69 273.97V263.24C919.083 259.833 926.03 253.613 930.342 245.648C934.653 237.682 936.062 228.465 934.326 219.575C932.59 210.685 927.818 202.675 920.826 196.916C913.834 191.157 905.058 188.008 896 188.008C886.942 188.008 878.166 191.157 871.174 196.916C864.182 202.675 859.41 210.685 857.674 219.575C855.938 228.465 857.347 237.682 861.658 245.648C865.97 253.613 872.917 259.833 881.31 263.24V273.97C871.526 276.69 862.686 282.065 855.77 289.5C848.445 278.51 837.415 270.518 824.69 266.98V256.24C833.083 252.833 840.03 246.613 844.342 238.648C848.653 230.682 850.062 221.465 848.326 212.575C846.59 203.685 841.818 195.675 834.826 189.916C827.834 184.157 819.058 181.008 810 181.008C800.942 181.008 792.166 184.157 785.174 189.916C778.182 195.675 773.41 203.685 771.674 212.575C769.938 221.465 771.347 230.682 775.658 238.648C779.97 246.613 786.917 252.833 795.31 256.24V266.97C786.61 269.385 778.639 273.905 772.1 280.13C764.803 270.335 754.457 263.243 742.69 259.97V249.24C751.083 245.833 758.03 239.613 762.342 231.648C766.653 223.682 768.062 214.465 766.326 205.575C764.59 196.685 759.818 188.675 752.826 182.916C745.834 177.157 737.058 174.008 728 174.008C718.942 174.008 710.166 177.157 703.174 182.916C696.182 188.675 691.41 196.685 689.674 205.575C687.938 214.465 689.347 223.682 693.658 231.648C697.97 239.613 704.917 245.833 713.31 249.24V259.97C703.3 262.76 694.286 268.328 687.31 276.03C684.201 268.058 679.277 260.92 672.929 255.181C666.582 249.443 658.984 245.262 650.74 242.97V232.24C659.133 228.833 666.08 222.613 670.392 214.648C674.703 206.682 676.112 197.465 674.376 188.575C672.64 179.685 667.868 171.675 660.876 165.916C653.884 160.157 645.108 157.008 636.05 157.008C626.992 157.008 618.216 160.157 611.224 165.916C604.232 171.675 599.46 179.685 597.724 188.575C595.988 197.465 597.397 206.682 601.708 214.648C606.02 222.613 612.967 228.833 621.36 232.24V242.97C610.644 245.954 601.085 252.116 593.943 260.645C586.802 269.173 582.415 279.667 581.36 290.74C576.313 287.236 570.711 284.61 564.79 282.97V272.24C573.183 268.833 580.13 262.613 584.442 254.648C588.754 246.682 590.162 237.465 588.426 228.575C586.69 219.685 581.918 211.675 574.926 205.916C567.934 200.157 559.158 197.008 550.1 197.008C541.042 197.008 532.266 200.157 525.274 205.916C518.282 211.675 513.51 219.685 511.774 228.575C510.038 237.465 511.446 246.682 515.758 254.648C520.07 262.613 527.017 268.833 535.41 272.24V282.97C527.941 285.05 520.993 288.681 515.021 293.626C509.049 298.571 504.187 304.72 500.75 311.67C496.117 308.693 491.059 306.434 485.75 304.97V294.24C494.143 290.833 501.09 284.613 505.402 276.648C509.713 268.682 511.122 259.465 509.386 250.575C507.65 241.685 502.878 233.675 495.886 227.916C488.894 222.157 480.118 219.008 471.06 219.008C462.002 219.008 453.226 222.157 446.234 227.916C439.242 233.675 434.47 241.685 432.734 250.575C430.998 259.465 432.407 268.682 436.718 276.648C441.03 284.613 447.977 290.833 456.37 294.24V304.97C451.36 306.352 446.575 308.447 442.16 311.19C438.7 304.354 433.853 298.313 427.928 293.454C422.004 288.596 415.132 285.025 407.75 282.97V272.24C416.143 268.833 423.09 262.613 427.402 254.648C431.714 246.682 433.122 237.465 431.386 228.575C429.65 219.685 424.878 211.675 417.886 205.916C410.894 200.157 402.118 197.008 393.06 197.008C384.002 197.008 375.226 200.157 368.234 205.916C361.242 211.675 356.47 219.685 354.734 228.575C352.998 237.465 354.407 246.682 358.718 254.648C363.03 262.613 369.977 268.833 378.37 272.24V282.97C370.425 285.18 363.078 289.145 356.87 294.572C350.662 300 345.751 306.752 342.5 314.33C336.908 310.037 330.542 306.859 323.75 304.97V294.24C332.143 290.833 339.09 284.613 343.402 276.648C347.714 268.682 349.122 259.465 347.386 250.575C345.65 241.685 340.878 233.675 333.886 227.916C326.894 222.157 318.118 219.008 309.06 219.008C300.002 219.008 291.226 222.157 284.234 227.916C277.242 233.675 272.47 241.685 270.734 250.575C268.998 259.465 270.407 268.682 274.718 276.648C279.03 284.613 285.977 290.833 294.37 294.24V304.97C282.781 308.182 272.563 315.104 265.283 324.677C258.003 334.249 254.06 345.944 254.06 357.97V605.97H364V583.97H416V605.97H526V583.97H605V543.97H673V560.97H755V567.97H841V574.97H951V326.97C951 314.944 947.057 303.249 939.777 293.677C932.497 284.104 922.279 277.182 910.69 273.97V273.97Z" fill="#6C63FF"/>
<path d="M490.78 169H582.21C604.572 168.999 626.716 173.402 647.376 181.959C668.037 190.516 686.81 203.058 702.623 218.87C718.436 234.682 730.979 253.454 739.537 274.114C748.095 294.774 752.5 316.918 752.5 339.28V570H320.5V339.28C320.5 294.119 338.44 250.808 370.374 218.874C402.308 186.94 445.619 169 490.78 169V169Z" fill="#2F2E41"/>
<path opacity="0.2" d="M500.78 178.28H572.21C594.572 178.279 616.716 182.682 637.376 191.239C658.037 199.796 676.81 212.338 692.623 228.15C708.436 243.962 720.979 262.734 729.537 283.394C738.095 304.054 742.5 326.198 742.5 348.56V560.71H330.5V348.56C330.5 303.399 348.44 260.088 380.374 228.154C412.308 196.22 455.619 178.28 500.78 178.28V178.28Z" fill="black"/>
<path d="M1044 602.59V620.05C1021.05 631.333 995.809 637.151 970.24 637.05H217.17C211.17 637.05 205.223 636.81 199.33 636.33C178.387 634.68 157.807 629.915 138.27 622.19C134.457 620.683 130.717 619.063 127.05 617.33C125.303 616.51 123.573 615.667 121.86 614.8C120.79 614.26 119.72 613.7 118.66 613.14C112.229 609.726 105.999 605.947 100 601.82V554.4C100 546.735 103.045 539.384 108.465 533.965C113.884 528.545 121.235 525.5 128.9 525.5H960.13C967.122 525.513 973.873 528.06 979.13 532.67L1034.13 580.87C1037.23 583.578 1039.71 586.917 1041.41 590.663C1043.12 594.409 1044 598.475 1044 602.59Z" fill="#2F2E41"/>
<path d="M482.67 225.81C460.863 227.25 439.14 229.583 417.5 232.81C411.35 233.73 405.11 234.75 399.5 237.47C395.141 239.753 391.122 242.634 387.56 246.03C371.496 260.421 358.562 277.961 349.56 297.56C343.99 309.71 339.99 322.56 334.74 334.81C316.05 378.56 282.15 414.34 262.42 457.63C258.15 467 254.55 476.78 253.12 486.97C251.64 497.51 253.32 509.81 261.98 515.97C265.98 518.8 270.84 519.97 275.6 520.97C335.521 534.24 396.14 544.139 457.17 550.62C450.56 544.24 448.35 534.35 449.22 525.21C450.09 516.07 453.68 507.43 457.22 498.96C422.68 491.34 388.227 483.34 353.86 474.96C348.73 473.71 342.57 471.36 341.94 466.12C341.62 463.45 342.94 460.88 344.24 458.53C358.897 431.989 376.473 407.169 396.64 384.53C396.64 412.59 395.25 444.28 395.25 472.35H719.35C715.452 456.334 713.161 439.97 712.51 423.5C711 369.74 729.1 316.39 724.4 262.74C723.96 257.79 723.28 252.69 720.69 248.45C716.22 241.13 707.3 238.1 699.1 235.6C667.66 226.04 635.56 216.37 602.7 217.12C592.93 217.35 583.2 218.49 573.49 219.64C543.9 223.13 512.4 223.84 482.67 225.81Z" fill="#EC008E"/>
<path d="M330.88 548.32L354.48 623.85C354.631 624.328 354.93 624.746 355.335 625.043C355.74 625.34 356.228 625.5 356.73 625.5H458L434 537.5L332.94 545.27C332.588 545.299 332.247 545.407 331.942 545.585C331.637 545.764 331.376 546.008 331.179 546.301C330.981 546.594 330.852 546.927 330.8 547.277C330.748 547.626 330.776 547.983 330.88 548.32V548.32Z" fill="#656478"/>
<path d="M504 258.29C499.6 260.82 494.47 261.73 489.47 262.6L457.2 268.2C450.92 269.29 444.31 270.53 439.47 274.68C429.57 283.15 431.71 298.74 434.71 311.42L440.71 336.86C445.23 355.98 449.85 375.33 459.12 392.65C475.31 422.88 505.01 444.65 537.67 455.14C549.34 458.89 561.67 461.33 573.85 459.99C597.71 457.37 618.12 440.36 630.7 419.91C643.28 399.46 649.27 375.74 654.76 352.36C660.03 329.98 665.04 307.28 664.7 284.28C664.6 277.12 663.88 269.64 660.06 263.57C651.69 250.24 632.72 249.24 617.17 251.7C614.75 252.09 612.24 252.51 609.91 251.78C602.91 249.6 602.75 239.99 599.75 233.32C594.08 220.74 577.26 218.51 563.51 219.65C549.76 220.79 528.35 222.26 516.37 230.05C504.85 237.5 517.51 250.5 504 258.29Z" fill="#FBBEBE"/>
<path opacity="0.1" d="M504 258.29C499.6 260.82 494.47 261.73 489.47 262.6L457.2 268.2C450.92 269.29 444.31 270.53 439.47 274.68C429.57 283.15 431.71 298.74 434.71 311.42L440.71 336.86C445.23 355.98 449.85 375.33 459.12 392.65C475.31 422.88 505.01 444.65 537.67 455.14C549.34 458.89 561.67 461.33 573.85 459.99C597.71 457.37 618.12 440.36 630.7 419.91C643.28 399.46 649.27 375.74 654.76 352.36C660.03 329.98 665.04 307.28 664.7 284.28C664.6 277.12 663.88 269.64 660.06 263.57C651.69 250.24 632.72 249.24 617.17 251.7C614.75 252.09 612.24 252.51 609.91 251.78C602.91 249.6 602.75 239.99 599.75 233.32C594.08 220.74 577.26 218.51 563.51 219.65C549.76 220.79 528.35 222.26 516.37 230.05C504.85 237.5 517.51 250.5 504 258.29Z" fill="black"/>
<path d="M477.29 286.95C482.17 297.19 485.83 308.05 491.73 317.74C496.42 325.44 502.43 332.23 508.41 338.98C523.9 356.5 539.59 374.16 558.76 387.5C566.699 346.717 585.877 308.964 614.13 278.5C622.39 269.63 632.73 260.89 644.85 261.22C652.37 261.43 659.31 265.16 665.57 269.31C672.57 273.94 679.19 279.31 684.22 285.98C692.17 296.6 695.6 310.05 696.22 323.3C696.84 336.55 694.78 349.77 692.74 362.87L682.24 430.58C681.63 434.5 680.78 438.83 677.58 441.18C675.763 442.331 673.714 443.069 671.58 443.34C633.41 450.77 594.07 445.95 555.18 445.57C512.18 445.16 467.99 450.06 427.26 436.38C425.13 435.66 422.92 434.83 421.48 433.12C420.534 431.83 419.854 430.365 419.48 428.81C409.99 398.09 417.6 365.08 423.23 333.43C427.688 308.348 430.862 283.055 432.74 257.65C432.91 255.36 458.07 260.42 460.88 262.04C468.53 266.57 473.61 279.23 477.29 286.95Z" fill="#6C63FF"/>
<g opacity="0.2">
<path opacity="0.2" d="M166.87 536.79C166.87 537.25 166.82 537.7 166.77 538.14C162.957 536.633 159.217 535.013 155.55 533.28C153.591 533.022 151.769 532.134 150.36 530.75C149.29 530.21 148.22 529.65 147.16 529.09C147.4 528.587 147.671 528.1 147.97 527.63C150.03 524.37 153.16 522.33 156.61 522.44C160.06 522.55 163.05 524.78 164.9 528.15C166.315 530.803 166.995 533.786 166.87 536.79V536.79Z" fill="#3F3D56"/>
<path opacity="0.2" d="M167.41 519.67C167.342 522.67 166.475 525.597 164.9 528.15C162.84 531.4 159.71 533.44 156.26 533.33L155.55 533.28C153.591 533.022 151.769 532.134 150.36 530.75C149.404 529.842 148.598 528.789 147.97 527.63C146.59 524.968 145.915 521.997 146.01 519C146.104 516.003 146.965 513.08 148.51 510.51C150.57 507.25 153.7 505.21 157.15 505.32C160.6 505.43 163.59 507.66 165.44 511.03C166.855 513.683 167.535 516.666 167.41 519.67V519.67Z" fill="#3F3D56"/>
<path opacity="0.2" d="M167.95 502.576C168.194 494.842 163.604 488.422 157.697 488.235C151.791 488.048 146.805 494.166 146.56 501.9C146.316 509.634 150.906 516.054 156.812 516.241C162.719 516.428 167.705 510.31 167.95 502.576Z" fill="#3F3D56"/>
<path opacity="0.2" d="M168.495 485.456C168.74 477.722 164.15 471.301 158.243 471.115C152.337 470.928 147.35 477.046 147.106 484.78C146.862 492.514 151.452 498.934 157.358 499.121C163.265 499.307 168.251 493.189 168.495 485.456Z" fill="#3F3D56"/>
<path opacity="0.2" d="M169.031 468.335C169.275 460.602 164.685 454.181 158.779 453.994C152.872 453.808 147.886 459.926 147.642 467.659C147.397 475.393 151.987 481.814 157.894 482C163.8 482.187 168.786 476.069 169.031 468.335Z" fill="#3F3D56"/>
<path opacity="0.2" d="M122 349.55C120.592 347.643 119.322 345.638 118.2 343.55L146.46 339.82L116 339.1C113.285 332.661 111.913 325.736 111.966 318.748C112.019 311.76 113.497 304.857 116.31 298.46L156.43 320.9L119.68 292.06C123.387 286.064 128.291 280.896 134.085 276.881C139.879 272.865 146.439 270.087 153.355 268.72C160.271 267.354 167.395 267.427 174.281 268.938C181.167 270.448 187.667 273.361 193.377 277.496C199.086 281.632 203.882 286.9 207.464 292.972C211.046 299.044 213.337 305.789 214.195 312.786C215.053 319.783 214.459 326.882 212.451 333.64C210.442 340.397 207.061 346.668 202.52 352.06C204.708 355.027 206.569 358.222 208.07 361.59L171 379.43L210.33 367.6C212.808 375.769 213.209 384.428 211.498 392.792C209.787 401.155 206.017 408.96 200.53 415.5C206.242 423.249 209.657 432.448 210.386 442.047C211.114 451.646 209.126 461.256 204.649 469.777C200.172 478.299 193.387 485.389 185.07 490.235C176.752 495.081 167.239 497.489 157.617 497.182C147.996 496.875 138.655 493.865 130.664 488.499C122.672 483.132 116.353 475.624 112.428 466.834C108.504 458.044 107.132 448.327 108.471 438.795C109.81 429.262 113.806 420.299 120 412.93C113.178 403.671 109.666 392.388 110.029 380.894C110.392 369.399 114.608 358.36 122 349.55Z" fill="#6C63FF"/>
<path opacity="0.1" d="M212.5 384.12C212.148 395.624 207.919 406.671 200.5 415.47C206.22 423.215 209.643 432.415 210.379 442.015C211.114 451.615 209.132 461.229 204.66 469.755C200.187 478.281 193.404 485.376 185.087 490.228C176.77 495.079 167.255 497.491 157.632 497.187C148.008 496.883 138.664 493.877 130.67 488.511C122.675 483.144 116.353 475.636 112.426 466.845C108.5 458.053 107.128 448.334 108.467 438.799C109.807 429.264 113.803 420.299 120 412.93C113.37 403.99 212.68 378.37 212.5 384.12Z" fill="black"/>
</g>
<path opacity="0.1" d="M68.02 162.81C79.9659 162.81 89.65 153.126 89.65 141.18C89.65 129.234 79.9659 119.55 68.02 119.55C56.0741 119.55 46.39 129.234 46.39 141.18C46.39 153.126 56.0741 162.81 68.02 162.81Z" fill="#6C63FF"/>
<path opacity="0.1" d="M158.17 43.26C170.116 43.26 179.8 33.5759 179.8 21.63C179.8 9.68408 170.116 0 158.17 0C146.224 0 136.54 9.68408 136.54 21.63C136.54 33.5759 146.224 43.26 158.17 43.26Z" fill="#6C63FF"/>
<path opacity="0.1" d="M150.84 140.01C170.86 140.01 187.09 123.78 187.09 103.76C187.09 83.7397 170.86 67.51 150.84 67.51C130.82 67.51 114.59 83.7397 114.59 103.76C114.59 123.78 130.82 140.01 150.84 140.01Z" fill="#6C63FF"/>
<path d="M543 269.5C589.392 269.5 627 231.892 627 185.5C627 139.108 589.392 101.5 543 101.5C496.608 101.5 459 139.108 459 185.5C459 231.892 496.608 269.5 543 269.5Z" fill="#FBBEBE"/>
<path d="M508.88 20.67C486.47 23.51 462.28 27.26 446.44 43.36C437.58 52.36 432.39 64.36 428.12 76.24C421.5 94.74 416.57 114.24 418.12 133.87C419.5 151.43 426 169.39 420.74 186.21C418.32 193.95 413.57 200.71 409.88 207.92C403.04 221.31 399.82 236.32 398.64 251.31C397.82 261.62 397.98 272.23 401.37 282C404.98 292.4 412.02 301.25 416.48 311.31C423.08 326.17 423.74 342.89 424.25 359.14C424.76 375.39 425.19 391.53 425.57 407.72C425.81 417.9 425.83 428.8 420.2 437.29C440.99 428.96 462.07 420.46 479.86 406.86C497.65 393.26 512.05 373.65 514.35 351.37C516.21 333.31 510.11 315.51 504.85 298.13C491.85 255.13 483.45 209.29 492.91 165.38C496.32 149.57 504.61 131.92 520.52 129.01C530.23 127.24 539.92 131.67 548.67 136.25C569.35 147.07 590.67 161.07 598.37 183.1C605.37 203.02 599.48 225.21 590.37 244.23C581.26 263.25 568.86 280.74 561.78 300.62C550.91 331.12 553.97 366.83 572.03 393.7C590.09 420.57 623.46 437.1 655.55 432.76C653.04 421.92 645.17 413.16 640.95 402.86C633.28 384.15 638.45 362.63 646.7 344.17C654.95 325.71 666.21 308.5 671.37 288.9C675.01 275.1 675.45 260.68 675.43 246.41C675.43 223.95 674.32 201.48 672.16 179.12C670 156.76 666.7 134.12 659.58 112.61C653.86 95.36 645.53 78.68 633.07 65.45C619.81 51.36 602.55 41.81 585.6 32.45C575.46 26.87 565.1 21.22 553.72 19.13C544.72 17.48 535.26 15.13 526.08 14.98C519.84 14.89 513.28 16.24 508.88 20.67Z" fill="#434175"/>
<path d="M666.98 129.089L612.938 118.604C611.366 118.299 609.844 119.326 609.539 120.898L583.647 254.35C583.342 255.922 584.369 257.444 585.941 257.749L639.984 268.234C641.556 268.539 643.078 267.512 643.383 265.94L669.275 132.488C669.58 130.916 668.553 129.394 666.98 129.089Z" fill="#656478"/>
<path d="M671.065 129.882L617.023 119.396C615.451 119.091 613.929 120.119 613.624 121.691L587.732 255.142C587.427 256.715 588.454 258.237 590.026 258.542L644.068 269.027C645.641 269.332 647.163 268.305 647.468 266.732L673.36 133.281C673.665 131.709 672.637 130.187 671.065 129.882Z" fill="#3F3D56"/>
<path d="M642.206 155.554C643.263 150.105 642.296 145.334 640.046 144.898C637.796 144.461 635.115 148.524 634.058 153.973C633.001 159.422 633.968 164.193 636.218 164.63C638.468 165.066 641.149 161.003 642.206 155.554Z" fill="#6C63FF"/>
<path d="M655 201C652.36 196.33 649.54 191.5 645.09 188.51C642.532 186.941 639.783 185.708 636.91 184.84C627.22 181.45 617.37 178.03 607.12 177.49C605.45 177.41 603.54 177.49 602.45 178.77C600.21 181.4 603.76 184.98 606.83 186.57L631.25 199.22L608.74 196.84C605.47 196.49 600.81 197.38 601.05 200.66C601.21 202.81 603.57 203.98 605.61 204.66C620.06 209.66 636.76 213.58 644.67 226.66C634.13 225.66 623.36 224.66 613.03 226.98C610.2 227.62 607.27 228.61 605.42 230.84C603.57 233.07 603.36 236.84 605.69 238.61C607.13 239.68 609.07 239.71 610.87 239.61C618.2 239.26 625.72 237.8 632.76 239.89C639.8 241.98 646.05 249.36 643.62 256.28C649.86 256.84 657.24 256.28 663.01 253.59C669.37 250.59 669.22 244.95 668.83 238.15C668 224.83 661.39 212.4 655 201Z" fill="#FBBEBE"/>
<path opacity="0.1" d="M648.69 418.99C643.094 379.638 635.416 340.61 625.69 302.07C620.69 282.07 615.01 261.73 616.44 241.15C637.1 243.78 655.61 245.73 674.65 237.29C674.96 248.1 682.8 257.29 685.65 267.74C687.56 274.74 686.84 282.15 687.59 289.36C688.34 296.57 690.59 303.56 692.52 310.57C702.096 345.307 704.354 381.655 699.15 417.31C681.48 419.41 666.32 421.72 648.69 418.99Z" fill="black"/>
<path d="M645.69 418.99C640.094 379.638 632.416 340.61 622.69 302.07C617.69 282.07 612.01 261.73 613.44 241.15C634.1 243.78 652.61 245.73 671.65 237.29C671.96 248.1 679.8 257.29 682.65 267.74C684.56 274.74 683.84 282.15 684.59 289.36C685.34 296.57 687.59 303.56 689.52 310.57C699.096 345.307 701.354 381.655 696.15 417.31C678.48 419.41 663.32 421.72 645.69 418.99Z" fill="#EC008E"/>
<path d="M356.63 613.77L366.42 370.9C366.576 367.039 368.229 363.391 371.029 360.729C373.83 358.067 377.557 356.6 381.42 356.64L767.94 360.34C769.988 360.361 772.01 360.805 773.878 361.645C775.746 362.484 777.421 363.701 778.796 365.219C780.172 366.736 781.219 368.521 781.872 370.463C782.525 372.404 782.769 374.46 782.59 376.5L762.17 609.17C761.849 612.829 760.185 616.239 757.498 618.743C754.811 621.247 751.292 622.667 747.62 622.73L371.74 629.23C369.716 629.264 367.707 628.885 365.835 628.116C363.964 627.346 362.268 626.203 360.854 624.756C359.439 623.308 358.335 621.588 357.609 619.699C356.882 617.81 356.549 615.792 356.63 613.77Z" fill="#3F3D56"/>
<path d="M572.5 487C581.889 487 589.5 478.046 589.5 467C589.5 455.954 581.889 447 572.5 447C563.111 447 555.5 455.954 555.5 467C555.5 478.046 563.111 487 572.5 487Z" fill="#EC008E"/>
<path d="M936 453.26L935.2 460.12L922.2 570.98C888.31 594.61 861.95 571.9 861.72 570.98L845.34 459.6L844.41 453.26H936Z" fill="#3F3D56"/>
<path opacity="0.1" d="M936 453.26L935.2 460.12C897.02 482.32 856.29 465.04 845.34 459.6L844.41 453.26H936Z" fill="black"/>
<path d="M842.5 447.24V457.24C842.5 457.24 893 486.6 938.5 457.24V447.24H842.5Z" fill="#EC008E"/>
<path d="M848.37 434.03C848.37 434.03 846.9 440.78 842.5 441.37V449.88H938.5V442.25C938.5 442.25 932.63 440.78 933.5 434.03H848.37Z" fill="#6C63FF"/>
<path d="M890.21 447.24C914.124 447.24 933.51 441.653 933.51 434.76C933.51 427.867 914.124 422.28 890.21 422.28C866.296 422.28 846.91 427.867 846.91 434.76C846.91 441.653 866.296 447.24 890.21 447.24Z" fill="#6C63FF"/>
<path opacity="0.1" d="M890.21 447.24C914.124 447.24 933.51 441.653 933.51 434.76C933.51 427.867 914.124 422.28 890.21 422.28C866.296 422.28 846.91 427.867 846.91 434.76C846.91 441.653 866.296 447.24 890.21 447.24Z" fill="#EC008E"/>
<path opacity="0.1" d="M928.22 434.03C928.22 439.03 911.8 443.13 891.53 443.13H890.45C876.84 443.03 865.08 441.13 859.08 438.29C856.37 437.01 854.83 435.56 854.83 434.03C854.83 431.49 859.03 429.19 865.83 427.54C874.279 425.692 882.912 424.817 891.56 424.93C911.8 424.93 928.22 429 928.22 434.03Z" fill="black"/>
<path opacity="0.1" d="M890.45 443.13C876.84 443.03 865.08 441.13 859.08 438.29L865.8 427.5L890.45 443.13Z" fill="#EC008E"/>
<path opacity="0.1" d="M852.1 434.73C851.58 434.62 850.89 434.8 850.79 435.32C850.777 435.585 850.847 435.847 850.99 436.07C852.136 437.883 853.802 439.308 855.77 440.16C856.106 440.349 856.477 440.468 856.86 440.51C857.06 440.534 857.262 440.497 857.44 440.404C857.619 440.312 857.765 440.167 857.86 439.99C857.915 439.839 857.937 439.678 857.925 439.517C857.913 439.357 857.867 439.201 857.79 439.06C857.484 438.519 857.06 438.054 856.55 437.7C855.21 436.65 853.84 435.02 852.1 434.73Z" fill="black"/>
<path d="M891.67 541.62C905.935 541.62 917.5 530.055 917.5 515.79C917.5 501.524 905.935 489.96 891.67 489.96C877.404 489.96 865.84 501.524 865.84 515.79C865.84 530.055 877.404 541.62 891.67 541.62Z" fill="#EC008E"/>
<path d="M188.33 515.85H200.44C207.07 515.85 213.429 518.484 218.118 523.172C222.806 527.861 225.44 534.22 225.44 540.85V578H163.33V540.85C163.33 534.22 165.964 527.861 170.652 523.172C175.341 518.484 181.7 515.85 188.33 515.85V515.85Z" fill="#3F3D56"/>
<path opacity="0.1" d="M188.33 515.85H200.44C207.07 515.85 213.429 518.484 218.118 523.172C222.806 527.861 225.44 534.22 225.44 540.85V578H163.33V540.85C163.33 534.22 165.964 527.861 170.652 523.172C175.341 518.484 181.7 515.85 188.33 515.85V515.85Z" fill="black"/>
<path d="M191.9 529.52C194.645 529.52 196.87 527.295 196.87 524.55C196.87 521.805 194.645 519.58 191.9 519.58C189.155 519.58 186.93 521.805 186.93 524.55C186.93 527.295 189.155 529.52 191.9 529.52Z" fill="#3F3D56"/>
<path d="M191.9 523.31C194.645 523.31 196.87 521.085 196.87 518.34C196.87 515.595 194.645 513.37 191.9 513.37C189.155 513.37 186.93 515.595 186.93 518.34C186.93 521.085 189.155 523.31 191.9 523.31Z" fill="#3F3D56"/>
<path d="M191.9 517.09C194.645 517.09 196.87 514.865 196.87 512.12C196.87 509.375 194.645 507.15 191.9 507.15C189.155 507.15 186.93 509.375 186.93 512.12C186.93 514.865 189.155 517.09 191.9 517.09Z" fill="#3F3D56"/>
<path d="M191.9 510.88C194.645 510.88 196.87 508.655 196.87 505.91C196.87 503.165 194.645 500.94 191.9 500.94C189.155 500.94 186.93 503.165 186.93 505.91C186.93 508.655 189.155 510.88 191.9 510.88Z" fill="#3F3D56"/>
<path d="M191.9 504.67C194.645 504.67 196.87 502.445 196.87 499.7C196.87 496.955 194.645 494.73 191.9 494.73C189.155 494.73 186.93 496.955 186.93 499.7C186.93 502.445 189.155 504.67 191.9 504.67Z" fill="#3F3D56"/>
<path d="M191.9 498.46C194.645 498.46 196.87 496.235 196.87 493.49C196.87 490.745 194.645 488.52 191.9 488.52C189.155 488.52 186.93 490.745 186.93 493.49C186.93 496.235 189.155 498.46 191.9 498.46Z" fill="#3F3D56"/>
<path d="M191.9 492.25C194.645 492.25 196.87 490.025 196.87 487.28C196.87 484.535 194.645 482.31 191.9 482.31C189.155 482.31 186.93 484.535 186.93 487.28C186.93 490.025 189.155 492.25 191.9 492.25Z" fill="#3F3D56"/>
<path d="M199.36 494.73C202.105 494.73 204.33 492.505 204.33 489.76C204.33 487.015 202.105 484.79 199.36 484.79C196.615 484.79 194.39 487.015 194.39 489.76C194.39 492.505 196.615 494.73 199.36 494.73Z" fill="#3F3D56"/>
<path d="M204.33 492.25C207.075 492.25 209.3 490.025 209.3 487.28C209.3 484.535 207.075 482.31 204.33 482.31C201.585 482.31 199.36 484.535 199.36 487.28C199.36 490.025 201.585 492.25 204.33 492.25Z" fill="#3F3D56"/>
<path d="M209.3 489.76C212.045 489.76 214.27 487.535 214.27 484.79C214.27 482.045 212.045 479.82 209.3 479.82C206.555 479.82 204.33 482.045 204.33 484.79C204.33 487.535 206.555 489.76 209.3 489.76Z" fill="#3F3D56"/>
<path d="M191.9 486.04C194.645 486.04 196.87 483.815 196.87 481.07C196.87 478.325 194.645 476.1 191.9 476.1C189.155 476.1 186.93 478.325 186.93 481.07C186.93 483.815 189.155 486.04 191.9 486.04Z" fill="#3F3D56"/>
<path d="M191.9 479.83C194.645 479.83 196.87 477.605 196.87 474.86C196.87 472.115 194.645 469.89 191.9 469.89C189.155 469.89 186.93 472.115 186.93 474.86C186.93 477.605 189.155 479.83 191.9 479.83Z" fill="#3F3D56"/>
<path d="M191.9 473.61C194.645 473.61 196.87 471.385 196.87 468.64C196.87 465.895 194.645 463.67 191.9 463.67C189.155 463.67 186.93 465.895 186.93 468.64C186.93 471.385 189.155 473.61 191.9 473.61Z" fill="#3F3D56"/>
<path d="M191.9 467.4C194.645 467.4 196.87 465.175 196.87 462.43C196.87 459.685 194.645 457.46 191.9 457.46C189.155 457.46 186.93 459.685 186.93 462.43C186.93 465.175 189.155 467.4 191.9 467.4Z" fill="#3F3D56"/>
<path d="M212.5 446.41C211.27 446.59 210.03 446.72 208.79 446.8C209.947 445.788 211.021 444.685 212 443.5C211.308 441.413 210.296 439.446 209 437.67C207.768 438.362 206.406 438.791 205 438.93C203.77 439.11 202.53 439.24 201.29 439.33C202.92 438 204.44 436 206.04 434.33C202.342 430.977 197.575 429.045 192.587 428.876C187.598 428.707 182.711 430.313 178.796 433.408C174.88 436.504 172.189 440.887 171.201 445.78C170.213 450.673 170.993 455.757 173.401 460.129C175.809 464.501 179.69 467.877 184.353 469.657C189.016 471.437 194.16 471.505 198.869 469.85C203.578 468.194 207.547 464.922 210.07 460.616C212.594 456.309 213.508 451.247 212.65 446.33L212.5 446.41Z" fill="#6C63FF"/>
<path d="M229.11 471.1C227.842 471.878 226.412 472.354 224.93 472.49C223.7 472.67 222.46 472.81 221.22 472.89C222.538 471.708 223.768 470.431 224.9 469.07C221.903 468.289 218.723 468.653 215.981 470.092C213.239 471.531 211.132 473.941 210.073 476.85C209.013 479.76 209.076 482.96 210.251 485.826C211.425 488.691 213.626 491.015 216.423 492.344C219.221 493.673 222.413 493.911 225.376 493.011C228.339 492.111 230.86 490.139 232.446 487.479C234.032 484.819 234.569 481.664 233.952 478.629C233.335 475.595 231.609 472.899 229.11 471.07V471.1Z" fill="#6C63FF"/>
<path d="M184.45 494.73C187.195 494.73 189.42 492.505 189.42 489.76C189.42 487.015 187.195 484.79 184.45 484.79C181.705 484.79 179.48 487.015 179.48 489.76C179.48 492.505 181.705 494.73 184.45 494.73Z" fill="#3F3D56"/>
<path d="M179.48 492.25C182.225 492.25 184.45 490.025 184.45 487.28C184.45 484.535 182.225 482.31 179.48 482.31C176.735 482.31 174.51 484.535 174.51 487.28C174.51 490.025 176.735 492.25 179.48 492.25Z" fill="#3F3D56"/>
<path d="M174.51 489.76C177.255 489.76 179.48 487.535 179.48 484.79C179.48 482.045 177.255 479.82 174.51 479.82C171.765 479.82 169.54 482.045 169.54 484.79C169.54 487.535 171.765 489.76 174.51 489.76Z" fill="#3F3D56"/>
<path d="M154.7 471.1C155.967 471.88 157.398 472.356 158.88 472.49C160.11 472.67 161.35 472.81 162.59 472.89C161.27 471.71 160.039 470.434 158.91 469.07C161.906 468.289 165.087 468.653 167.829 470.092C170.571 471.531 172.678 473.941 173.737 476.85C174.797 479.76 174.734 482.96 173.559 485.826C172.385 488.691 170.184 491.015 167.387 492.344C164.589 493.673 161.397 493.911 158.434 493.011C155.471 492.111 152.95 490.139 151.364 487.479C149.778 484.819 149.241 481.664 149.858 478.629C150.475 475.595 152.201 472.899 154.7 471.07V471.1Z" fill="#6C63FF"/>
<path d="M188.33 519.58H200.44C207.07 519.58 213.429 522.214 218.118 526.902C222.806 531.591 225.44 537.95 225.44 544.58V577.45C225.44 578.575 224.993 579.653 224.198 580.448C223.403 581.243 222.325 581.69 221.2 581.69H167.57C166.446 581.69 165.367 581.243 164.572 580.448C163.777 579.653 163.33 578.575 163.33 577.45V544.58C163.33 537.95 165.964 531.591 170.652 526.902C175.341 522.214 181.7 519.58 188.33 519.58Z" fill="#3F3D56"/>
<g opacity="0.1">
<path opacity="0.1" d="M212.88 447.77C212.377 448.308 211.843 448.815 211.28 449.29C211.85 449.29 212.41 449.2 212.98 449.14C213 448.68 212.93 448.22 212.88 447.77Z" fill="black"/>
<path opacity="0.1" d="M203.82 441.83C205.07 441.75 206.3 441.62 207.54 441.44C208.652 441.299 209.74 441.003 210.77 440.56C210.266 439.559 209.685 438.599 209.03 437.69C208.408 438.069 207.734 438.355 207.03 438.54C206.049 439.72 204.976 440.821 203.82 441.83Z" fill="black"/>
<path opacity="0.1" d="M173.27 452.5C173.263 448.709 174.278 444.986 176.209 441.723C178.139 438.46 180.914 435.778 184.241 433.96C187.568 432.142 191.324 431.255 195.113 431.392C198.902 431.53 202.583 432.686 205.77 434.74L206.09 434.4C204.01 432.55 201.585 431.129 198.954 430.22C196.322 429.311 193.537 428.932 190.759 429.104C187.98 429.276 185.263 429.997 182.764 431.224C180.265 432.451 178.034 434.16 176.199 436.253C174.364 438.346 172.961 440.782 172.071 443.42C171.181 446.058 170.822 448.846 171.015 451.623C171.207 454.4 171.948 457.112 173.193 459.601C174.438 462.091 176.163 464.31 178.27 466.13C175.036 462.326 173.263 457.493 173.27 452.5Z" fill="black"/>
</g>
<g opacity="0.1">
<path opacity="0.1" d="M221.22 475.37C222.46 475.29 223.7 475.16 224.93 474.98C226.412 474.84 227.843 474.361 229.11 473.58C230.514 474.614 231.685 475.932 232.546 477.448C233.408 478.964 233.94 480.645 234.11 482.38C234.158 481.945 234.182 481.508 234.18 481.07C234.189 479.128 233.742 477.211 232.873 475.473C232.005 473.736 230.739 472.228 229.18 471.07C227.912 471.848 226.482 472.324 225 472.46L224 472.59C223.147 473.587 222.217 474.517 221.22 475.37Z" fill="black"/>
<path opacity="0.1" d="M221.72 471.13C222.135 471.135 222.549 471.165 222.96 471.22C223.61 470.53 224.25 469.79 224.9 469.07C223.062 468.579 221.135 468.518 219.269 468.891C217.403 469.264 215.648 470.061 214.14 471.221C212.631 472.382 211.41 473.873 210.571 475.581C209.732 477.289 209.297 479.167 209.3 481.07C209.3 481.49 209.3 481.9 209.36 482.31C209.667 479.246 211.102 476.405 213.386 474.339C215.67 472.273 218.64 471.129 221.72 471.13V471.13Z" fill="black"/>
</g>
<g opacity="0.1">
<path opacity="0.1" d="M162.59 475.37C161.35 475.29 160.11 475.16 158.88 474.98C157.397 474.842 155.967 474.363 154.7 473.58C153.296 474.614 152.125 475.932 151.264 477.448C150.402 478.964 149.87 480.645 149.7 482.38C149.651 481.945 149.628 481.508 149.63 481.07C149.621 479.128 150.068 477.211 150.937 475.473C151.805 473.736 153.071 472.228 154.63 471.07C155.897 471.85 157.328 472.326 158.81 472.46L159.81 472.59C160.658 473.592 161.588 474.522 162.59 475.37Z" fill="black"/>
<path opacity="0.1" d="M162.09 471.13C161.672 471.135 161.254 471.165 160.84 471.22C160.2 470.53 159.56 469.79 158.91 469.07C160.748 468.579 162.675 468.518 164.541 468.891C166.407 469.264 168.162 470.061 169.67 471.221C171.179 472.382 172.4 473.873 173.239 475.581C174.078 477.289 174.513 479.167 174.51 481.07C174.51 481.49 174.51 481.9 174.45 482.31C174.143 479.246 172.708 476.405 170.424 474.339C168.14 472.273 165.17 471.129 162.09 471.13Z" fill="black"/>
</g>
</g>
<defs>
<clipPath id="clip0_0_1">
<rect width="1144" height="637" fill="white"/>
</clipPath>
</defs>
</svg>
